<?xml version="1.0" standalone="no"?><!DOCTYPE svg PUBLIC "-//W3C//DTD SVG 1.1//EN" "http://www.w3.org/Graphics/SVG/1.1/DTD/svg11.dtd"><svg t="1756901067925" class="icon" viewBox="0 0 1024 1024" version="1.1" xmlns="http://www.w3.org/2000/svg" p-id="897" xmlns:xlink="http://www.w3.org/1999/xlink" width="200" height="200"><path d="M226.432 129.984c-14.016 54.72-0.192 92.8 2.944 100.608l9.92 24.832-17.984 19.776c-31.552 34.624-50.624 77.952-50.624 133.184 0 106.24 31.872 163.584 71.936 197.12 42.112 35.392 100.48 50.752 165.056 57.984l97.088 10.88-73.984 63.872c-10.368 8.96-25.856 32-25.856 79.168V832h0.384v85.312h-0.064l0.192 31.232v0.064l0.064 8c0.128 11.136 0.128 19.008 0.128 24.704V1024H320.32v-42.688c0-5.376 0-12.8-0.128-23.936v-8.32a32832.64 32832.64 0 0 1-0.256-31.744h-23.744c-51.84 0-100.864-23.552-133.248-64l-23.488-29.44a128 128 0 0 0-42.752-34.496l-47.296-23.68 38.208-76.288 47.296 23.68c27.584 13.76 51.84 33.408 71.168 57.536l23.488 29.312c16.192 20.288 40.704 32 66.56 32h23.488v-14.528c0-30.208 4.608-56.96 12.864-79.744-50.56-11.2-101.76-30.72-144.704-66.752-63.936-53.568-102.4-137.6-102.4-262.528 0-67.648 21.12-124.8 56.704-171.328-8.512-34.176-14.848-93.76 14.08-166.144L163.584 52.48 182.4 46.272h0.064l0.128-0.064 0.128-0.064 0.384-0.128 0.768-0.192a56.704 56.704 0 0 1 6.4-1.536c3.456-0.64 7.808-1.216 12.992-1.472a160.64 160.64 0 0 1 40.832 3.712c30.592 6.4 71.808 22.016 124.928 55.936a605.632 605.632 0 0 1 285.824 0c53.12-33.92 94.336-49.536 124.928-55.936a160.64 160.64 0 0 1 40.832-3.712 97.472 97.472 0 0 1 19.392 3.008l0.768 0.192 0.32 0.128h0.192l0.128 0.064 18.944 6.272 7.424 18.432c28.928 72.384 22.592 131.968 14.08 166.144 35.584 46.528 56.768 103.68 56.768 171.328 0 124.992-38.528 208.96-102.4 262.528-42.944 35.968-94.208 55.552-144.768 66.752 8.256 22.848 12.928 49.536 12.928 79.744 0 53.76-0.384 100.48-0.64 131.712v8.32l-0.128 23.872V1024H618.368v-42.688c0-5.76 0-13.568 0.128-24.704v-8.064c0.256-31.168 0.64-77.696 0.64-131.2 0-47.104-15.552-70.208-25.92-79.104l-73.984-63.808 97.088-10.88c64.64-7.296 122.88-22.656 165.12-58.048 40-33.536 71.872-90.88 71.872-197.12 0-55.232-19.072-98.56-50.56-133.184l-18.048-19.776 9.92-24.832c3.136-7.808 16.96-45.888 2.944-100.608l-0.256 0.064c-20.352 4.288-56.64 16.96-110.848 53.76l-16.384 11.2-19.136-5.376a517.504 517.504 0 0 0-277.888 0l-19.136 5.376-16.448-11.2c-54.144-36.8-90.432-49.472-110.72-53.76h-0.32z" fill="#000000" fill-opacity=".9" p-id="898"></path></svg>